<svg width="24" height="26" viewBox="0 0 24 26" fill="none" xmlns="http://www.w3.org/2000/svg">
<path d="M9 20C9 20.7956 9.31607 21.5587 9.87868 22.1213C10.4413 22.6839 11.2044 23 12 23C12.7956 23 13.5587 22.6839 14.1213 22.1213C14.6839 21.5587 15 20.7956 15 20" stroke="#242528" stroke-width="1.5" stroke-linecap="round" stroke-linejoin="round"/>
<path d="M5.24939 11.75C5.24939 9.95979 5.96055 8.2429 7.22642 6.97703C8.49229 5.71116 10.2092 5 11.9994 5C13.7896 5 15.5065 5.71116 16.7724 6.97703C18.0382 8.2429 18.7494 9.95979 18.7494 11.75C18.7494 15.1081 19.5275 17.8063 20.1463 18.875C20.212 18.9888 20.2466 19.1179 20.2468 19.2493C20.2469 19.3808 20.2124 19.5099 20.1469 19.6239C20.0814 19.7378 19.9871 19.8325 19.8735 19.8985C19.7598 19.9645 19.6308 19.9995 19.4994 20H4.49939C4.36813 19.9992 4.23936 19.964 4.12598 19.8978C4.01259 19.8317 3.91855 19.7369 3.85326 19.6231C3.78797 19.5092 3.75371 19.3801 3.75391 19.2489C3.75411 19.1176 3.78876 18.9887 3.85439 18.875C4.47221 17.8063 5.24939 15.1072 5.24939 11.75Z" stroke="#242528" stroke-width="1.5" stroke-linecap="round" stroke-linejoin="round"/>
</svg>
