<svg width="24" height="24" viewBox="0 0 24 24" fill="none" xmlns="http://www.w3.org/2000/svg">
<path d="M8.86953 20H4.69565C4.51115 20 4.33421 19.9267 4.20375 19.7963C4.07329 19.6658 4 19.4889 4 19.3044V15.4183C4.00009 15.234 4.07326 15.0574 4.20348 14.927L14.9269 4.20359C15.0573 4.07323 15.2342 4 15.4186 4C15.603 4 15.7799 4.07323 15.9104 4.20359L19.7964 8.08704C19.9268 8.21749 20 8.39436 20 8.57878C20 8.76319 19.9268 8.94007 19.7964 9.07051L8.86953 20Z" stroke="#797A7D" stroke-width="1.5" stroke-linecap="round" stroke-linejoin="round"/>
<path d="M19 20H9" stroke="#797A7D" stroke-width="1.5" stroke-linecap="round" stroke-linejoin="round"/>
<path d="M13 7L17 11" stroke="#797A7D" stroke-width="1.5" stroke-linecap="round" stroke-linejoin="round"/>
</svg>
