<svg width="22" height="22" viewBox="0 0 22 22" fill="none" xmlns="http://www.w3.org/2000/svg">
<g clip-path="url(#clip0_10452_6747)">
<path d="M11 14.4375C12.8985 14.4375 14.4375 12.8985 14.4375 11C14.4375 9.10152 12.8985 7.5625 11 7.5625C9.10152 7.5625 7.5625 9.10152 7.5625 11C7.5625 12.8985 9.10152 14.4375 11 14.4375Z" stroke="#797A7D" stroke-width="1.375" stroke-linecap="round" stroke-linejoin="round"/>
<path d="M3.5607 15.3049C3.18084 14.6506 2.88981 13.9486 2.69531 13.2175L4.13734 11.4128C4.12102 11.1369 4.12102 10.8603 4.13734 10.5844L2.69617 8.77969C2.89034 8.04843 3.18077 7.34619 3.55984 6.69141L5.85523 6.43359C6.03853 6.22708 6.23396 6.03166 6.44047 5.84836L6.69828 3.55383C7.35213 3.17656 8.05321 2.88786 8.78313 2.69531L10.5878 4.13734C10.8637 4.12102 11.1403 4.12102 11.4163 4.13734L13.2209 2.69617C13.9522 2.89034 14.6544 3.18077 15.3092 3.55984L15.567 5.85523C15.7735 6.03853 15.969 6.23396 16.1523 6.44047L18.4468 6.69828C18.8267 7.35258 19.1177 8.05456 19.3122 8.7857L17.8702 10.5904C17.8865 10.8663 17.8865 11.1429 17.8702 11.4188L19.3113 13.2235C19.1185 13.9546 18.8295 14.6568 18.452 15.3118L16.1566 15.5696C15.9733 15.7761 15.7778 15.9715 15.5713 16.1548L15.3135 18.4494C14.6592 18.8292 13.9572 19.1203 13.2261 19.3148L11.4214 17.8727C11.1455 17.8891 10.8689 17.8891 10.593 17.8727L8.78828 19.3139C8.05723 19.1211 7.35501 18.8321 6.7 18.4545L6.44219 16.1591C6.23567 15.9758 6.04025 15.7804 5.85695 15.5739L3.5607 15.3049Z" stroke="#797A7D" stroke-width="1.375" stroke-linecap="round" stroke-linejoin="round"/>
</g>
<defs>
<clipPath id="clip0_10452_6747">
<rect width="22" height="22" fill="white"/>
</clipPath>
</defs>
</svg>
