 <svg viewBox="0 0 41 41" fill="none" xmlns="http://www.w3.org/2000/svg">
      <path
        opacity="0.1"
        fill-rule="evenodd"
        clip-rule="evenodd"
        d="M20.5 7.6875C17.1019 7.6875 13.843 9.03738 11.4402 11.4402C9.03738 13.843 7.6875 17.1019 7.6875 20.5C7.6875 23.8981 9.03738 27.157 11.4402 29.5598C13.843 31.9626 17.1019 33.3125 20.5 33.3125C23.8981 33.3125 27.157 31.9626 29.5598 29.5598C31.9626 27.157 33.3125 23.8981 33.3125 20.5C33.3125 17.1019 31.9626 13.843 29.5598 11.4402C27.157 9.03738 23.8981 7.6875 20.5 7.6875ZM2.5625 20.5C2.5625 10.5934 10.5934 2.5625 20.5 2.5625C30.4066 2.5625 38.4375 10.5934 38.4375 20.5C38.4375 30.4066 30.4066 38.4375 20.5 38.4375C10.5934 38.4375 2.5625 30.4066 2.5625 20.5Z"
        fill="currentColor"
      />
      <path
        fill-rule="evenodd"
        clip-rule="evenodd"
        d="M20.4992 7.68752C17.196 7.68045 14.019 8.95626 11.6381 11.246C11.1448 11.702 10.4923 11.9462 9.8208 11.9258C9.14934 11.9054 8.51273 11.6222 8.04802 11.1372C7.58331 10.6521 7.32767 10.0039 7.33614 9.33218C7.34461 8.66047 7.6165 8.01895 8.09329 7.54573C11.428 4.34198 15.8749 2.55576 20.4992 2.56252C21.1788 2.56252 21.8306 2.8325 22.3112 3.31306C22.7917 3.79362 23.0617 4.4454 23.0617 5.12502C23.0617 5.80464 22.7917 6.45642 22.3112 6.93698C21.8306 7.41754 21.1788 7.68752 20.4992 7.68752Z"
        fill="currentColor"
      />
</svg>