<svg width="164" height="67" viewBox="0 0 164 67" fill="none" xmlns="http://www.w3.org/2000/svg">
<path d="M9.95142 12.1254L17.7427 22.4687C17.2155 24.1364 16.0878 25.549 14.5783 26.4325L13.1597 27.2628L10.518 27.2628L3.27159 16.997C2.01282 15.2138 2.35723 12.7592 4.05814 11.3912C5.87747 9.92799 8.54669 10.2605 9.95142 12.1254Z" fill="url(#paint0_linear_10374_405)"/>
<mask id="mask0_10374_405" style="mask-type:alpha" maskUnits="userSpaceOnUse" x="2" y="10" width="16" height="18">
<path d="M9.95142 12.1625L17.7427 22.5058C17.2155 24.1735 16.0878 25.5861 14.5783 26.4696L13.1597 27.3L10.518 27.3L3.27159 17.0341C2.01282 15.2509 2.35723 12.7963 4.05814 11.4283C5.87747 9.9651 8.54669 10.2976 9.95142 12.1625Z" fill="url(#paint1_linear_10374_405)"/>
</mask>
<g mask="url(#mask0_10374_405)">
<g filter="url(#filter0_d_10374_405)">
<path d="M21.8112 28.1804L34.032 11.706C35.418 9.83758 35.0374 7.20098 33.1796 5.80084C31.3146 4.39529 28.6637 4.76478 27.2542 6.62676L16.385 20.9846C16.385 20.9846 15.7141 21.946 14.4551 23.3995C13.9 24.0403 13.1094 24.6711 12.3479 25.204C11.0615 26.1043 9.33475 25.6661 8.45503 24.3656L9.66338 26.1719L10.5477 27.4269C13.2083 31.2028 18.6714 31.5682 21.8112 28.1804Z" fill="#009AFA"/>
</g>
</g>
<path d="M21.8112 28.1433C26.0967 23.2411 31.3014 15.9192 34.2348 11.6734C35.5419 9.78151 35.1021 7.21262 33.2657 5.82861C31.3531 4.38721 28.6346 4.76612 27.1891 6.67561L16.385 20.9475C16.385 20.9475 15.7141 21.9089 14.4551 23.3624C13.9 24.0032 13.1094 24.634 12.3479 25.1669C11.0615 26.0672 9.33475 25.629 8.45503 24.3285L9.66338 26.1348L10.5473 27.3893C13.2268 31.1918 18.7497 31.6455 21.8112 28.1433Z" fill="url(#paint2_linear_10374_405)"/>
<path d="M11.3135 44.8867C12.931 44.8867 14.4225 45.163 15.7812 45.7217L16.0342 45.8262C17.29 46.3659 18.3729 47.1456 19.2773 48.1631L19.5625 48.4834L19.2539 48.7822L17.3896 50.5889L17.0654 50.9043L16.7529 50.5762C15.3301 49.0816 13.5658 48.335 11.4287 48.335C10.0074 48.335 8.73488 48.6532 7.60254 49.2822C6.46854 49.9123 5.581 50.7826 4.93359 51.8975C4.30723 52.9899 3.99023 54.2211 3.99023 55.6016C3.99024 56.9827 4.30795 58.2253 4.93652 59.3389C5.58305 60.4314 6.46937 61.2903 7.60254 61.9199C8.73492 62.549 10.0073 62.8681 11.4287 62.8682C13.5439 62.8681 15.3099 62.1138 16.7539 60.5977L17.0654 60.2705L17.3896 60.585L19.2539 62.3916L19.5625 62.6904L19.2773 63.0117C18.313 64.0965 17.1368 64.9182 15.7568 65.4785C14.3969 66.0384 12.9045 66.3164 11.2852 66.3164C9.21004 66.3164 7.31904 65.8612 5.62305 64.9434L5.61719 64.9404C3.9441 64.0042 2.62385 62.7244 1.66504 61.1064L1.66406 61.1045C0.703342 59.4632 0.22657 57.625 0.226562 55.6016C0.226562 53.5781 0.70309 51.7484 1.66504 50.125C2.5647 48.5888 3.79154 47.3674 5.33789 46.4648L5.65137 46.2891C7.34715 45.3521 9.23804 44.8868 11.3135 44.8867ZM47.3115 49.8477C48.7593 49.8477 50.0881 50.181 51.2871 50.8516H51.2861C52.4846 51.5027 53.4409 52.4297 54.1494 53.624C54.8631 54.8273 55.2241 56.2057 55.2441 57.7461L55.249 58.1211L54.8818 58.1924L43.3535 60.4375C43.7081 61.163 44.2156 61.7349 44.8818 62.1611L45.2031 62.3457C45.9725 62.7467 46.8816 62.9541 47.9424 62.9541C49.6461 62.9541 50.9832 62.3854 51.998 61.2656L52.3428 60.8848L52.6729 61.2783L54.1641 63.0566L54.4053 63.3438L54.165 63.6309C53.4462 64.4934 52.5342 65.1464 51.4395 65.5928L51.4404 65.5938C50.3653 66.0399 49.1681 66.2588 47.8564 66.2588C46.189 66.2587 44.6914 65.9204 43.376 65.2324L43.3711 65.2305C42.0579 64.5233 41.0299 63.5383 40.2988 62.2793L40.2969 62.2744C39.5863 61.0156 39.2354 59.5999 39.2354 58.0391C39.2354 56.4986 39.5763 55.095 40.2656 53.8379L40.2676 53.833C40.9752 52.5795 41.9412 51.6016 43.1611 50.9102C44.4001 50.1997 45.7876 49.8477 47.3115 49.8477ZM64.6982 49.8477C66.136 49.8477 67.4325 50.1379 68.5752 50.7295H68.5742C69.7406 51.3233 70.6469 52.1877 71.2832 53.3164L71.4912 53.6846L71.1357 53.9131L69.042 55.2617L68.6689 55.502L68.4248 55.1309C67.9853 54.4629 67.4486 53.9731 66.8164 53.6484C66.1776 53.3206 65.4647 53.1533 64.6699 53.1533C63.746 53.1534 62.9228 53.3556 62.1924 53.7549L62.1934 53.7559C61.4855 54.1531 60.9223 54.7225 60.502 55.4756L60.501 55.4746C60.1034 56.2018 59.8984 57.0527 59.8984 58.0391C59.8984 59.0462 60.1054 59.9174 60.5049 60.665C60.924 61.395 61.4856 61.9545 62.1934 62.3516C62.9237 62.7506 63.7462 62.954 64.6699 62.9541C65.4648 62.9541 66.1776 62.7859 66.8164 62.458C67.4487 62.1333 67.9852 61.6437 68.4248 60.9756L68.667 60.6094L69.0381 60.8428L71.1318 62.1621L71.4932 62.3896L71.2832 62.7617C70.6473 63.8897 69.7424 64.7632 68.5781 65.376L68.5752 65.377C67.4325 65.9686 66.136 66.2588 64.6982 66.2588C63.0833 66.2587 61.6215 65.9091 60.3252 65.2002L60.3232 65.1982C59.0505 64.4911 58.0449 63.5173 57.3154 62.2812L57.3135 62.2793C56.5821 61.0197 56.2207 59.6021 56.2207 58.0391C56.2207 56.4762 56.5825 55.0672 57.3154 53.8252C58.0449 52.57 59.051 51.5941 60.3271 50.9053C61.623 50.1971 63.0841 49.8478 64.6982 49.8477ZM126.683 49.8477C127.831 49.8477 128.899 50.0702 129.88 50.5195H129.879C130.496 50.7904 131.051 51.1458 131.54 51.5859V49.9912H135.188V66.0869H131.654V64.415C131.161 64.8798 130.599 65.2612 129.97 65.5566C128.968 66.0266 127.87 66.2588 126.683 66.2588C125.142 66.2587 123.746 65.9183 122.507 65.2275C121.269 64.5376 120.292 63.5702 119.583 62.334L119.579 62.3271C118.888 61.0675 118.549 59.6337 118.549 58.0391C118.549 56.4446 118.888 55.0194 119.58 53.7773L119.583 53.7725C120.292 52.5363 121.269 51.5698 122.507 50.8799C123.746 50.189 125.142 49.8477 126.683 49.8477ZM142.434 49.9912H146.793V53.1533H142.434V60.9355C142.434 61.6843 142.616 62.1902 142.914 62.5205C143.229 62.849 143.692 63.04 144.366 63.04C145.116 63.04 145.731 62.8286 146.235 62.4219L146.693 62.0527L146.928 62.5918L147.788 64.5713L147.92 64.874L147.669 65.0898C147.215 65.4788 146.663 65.7733 146.023 65.9795L146.011 65.9834C145.377 66.1674 144.723 66.2588 144.051 66.2588C142.441 66.2587 141.129 65.8245 140.182 64.8984C139.231 63.9688 138.785 62.6619 138.785 61.0498V46.665H142.434V49.9912ZM155.836 49.8477C157.282 49.8477 158.608 50.1801 159.806 50.8486C161.006 51.4999 161.964 52.4281 162.674 53.624C163.388 54.8273 163.748 56.2057 163.769 57.7461L163.773 58.1211L163.406 58.1924L151.878 60.4375C152.233 61.163 152.74 61.7349 153.406 62.1611C154.24 62.6825 155.254 62.954 156.467 62.9541C158.171 62.9541 159.508 62.3854 160.522 61.2656L160.867 60.8848L161.197 61.2783L162.689 63.0566L162.93 63.3438L162.689 63.6309C161.97 64.4938 161.058 65.1483 159.963 65.5947L159.962 65.5938C158.887 66.0392 157.692 66.2588 156.381 66.2588C154.713 66.2587 153.216 65.9205 151.9 65.2324L151.896 65.2305C150.582 64.5234 149.555 63.5382 148.824 62.2793L148.821 62.2744C148.111 61.0156 147.76 59.5999 147.76 58.0391C147.76 56.4987 148.101 55.0949 148.79 53.8379L148.792 53.833C149.499 52.5801 150.465 51.6025 151.684 50.9111C152.923 50.2 154.311 49.8477 155.836 49.8477ZM25.2588 51.4844C25.7282 51.0844 26.2653 50.7521 26.8682 50.4883L26.8711 50.4863C27.8702 50.0582 28.9738 49.8477 30.1738 49.8477C32.1967 49.8477 33.85 50.442 35.0791 51.6709H35.0781C36.3367 52.8905 36.9306 54.6572 36.9307 56.8916V66.0869H33.2812V57.207C33.2812 55.8005 32.9435 54.8217 32.3438 54.1895C31.7433 53.5567 30.8618 53.2109 29.6289 53.2109C28.2312 53.211 27.1804 53.6192 26.4219 54.3945L26.418 54.3984C25.6672 55.1495 25.2588 56.2625 25.2588 57.8096V66.0869H21.6104V43.9121H25.2588V51.4844ZM76.8887 56.9941L84.4268 50.1084L84.5547 49.9912H89.1514L88.3691 50.7588L82.2598 56.7578L89.0381 65.3613L89.6094 66.0869H85.0879L84.9531 65.9199L79.5469 59.2109L76.8887 61.6748V66.0869H73.2393V43.9121H76.8887V56.9941ZM109.603 49.8477C111.604 49.8477 113.238 50.431 114.448 51.6396L114.673 51.875C115.761 53.0845 116.274 54.7792 116.274 56.8916V66.0869H112.625V57.207C112.625 55.7976 112.294 54.8166 111.711 54.1846L111.707 54.1797C111.144 53.5525 110.313 53.2109 109.144 53.2109C107.851 53.2111 106.868 53.6137 106.145 54.3877L106.142 54.3916C105.425 55.142 105.032 56.2572 105.032 57.8096V66.0869H101.383V57.207C101.383 55.7976 101.053 54.8166 100.47 54.1846L100.465 54.1797V54.1787C99.9018 53.5521 99.0716 53.2109 97.9023 53.2109C96.6094 53.211 95.6269 53.6137 94.9033 54.3877L94.8994 54.3916C94.1827 55.142 93.791 56.2574 93.791 57.8096V66.0869H90.1416V49.9912H93.6758V51.5254C94.1264 51.1147 94.6429 50.7775 95.2246 50.5176C96.1892 50.0675 97.2763 49.8477 98.4756 49.8477C99.7223 49.8477 100.848 50.0995 101.838 50.6152C102.631 51.0284 103.281 51.5963 103.785 52.3115C104.356 51.6205 105.074 51.0623 105.936 50.6396L105.938 50.6377C107.038 50.1083 108.263 49.8477 109.603 49.8477ZM126.912 53.1533C126.007 53.1534 125.204 53.357 124.493 53.7559L124.492 53.7549C123.806 54.1507 123.251 54.7188 122.83 55.4717L122.831 55.4727C122.433 56.2003 122.227 57.0516 122.227 58.0391C122.227 59.0227 122.431 59.8827 122.829 60.6299C123.249 61.3635 123.803 61.9348 124.493 62.3516L124.764 62.4922C125.406 62.7983 126.12 62.9541 126.912 62.9541C127.794 62.9541 128.586 62.7507 129.298 62.3525C130.009 61.9355 130.563 61.3662 130.963 60.6357C131.363 59.8872 131.568 59.0254 131.568 58.0391C131.568 57.0515 131.362 56.2004 130.964 55.4727L130.962 55.4688C130.561 54.7191 130.008 54.1521 129.302 53.7559C128.589 53.3563 127.796 53.1534 126.912 53.1533ZM155.836 53.0674C154.953 53.0674 154.172 53.2681 153.481 53.6641L153.482 53.665C152.812 54.0603 152.286 54.6181 151.902 55.3506L151.9 55.3545C151.554 56.0007 151.359 56.7593 151.328 57.6406L160.035 55.9971C159.772 55.1909 159.313 54.5287 158.653 54.001C157.88 53.3825 156.949 53.0674 155.836 53.0674ZM47.3115 53.0674C46.429 53.0674 45.6472 53.2682 44.957 53.6641C44.2872 54.0593 43.7616 54.6182 43.3779 55.3506L43.376 55.3545C43.0294 56.0005 42.8351 56.7588 42.8037 57.6396L51.5098 55.9971C51.2465 55.191 50.7884 54.5286 50.1289 54.001C49.3557 53.3825 48.4241 53.0674 47.3115 53.0674Z" fill="#242528"/>
<defs>
<filter id="filter0_d_10374_405" x="7.37967" y="2.52759" width="28.561" height="27.9792" filterUnits="userSpaceOnUse" color-interpolation-filters="sRGB">
<feFlood flood-opacity="0" result="BackgroundImageFix"/>
<feColorMatrix in="SourceAlpha" type="matrix" values="0 0 0 0 0 0 0 0 0 0 0 0 0 0 0 0 0 0 127 0" result="hardAlpha"/>
<feOffset dy="-1.34426"/>
<feGaussianBlur stdDeviation="0.537705"/>
<feComposite in2="hardAlpha" operator="out"/>
<feColorMatrix type="matrix" values="0 0 0 0 0 0 0 0 0 0 0 0 0 0 0 0 0 0 0.12 0"/>
<feBlend mode="normal" in2="BackgroundImageFix" result="effect1_dropShadow_10374_405"/>
<feBlend mode="normal" in="SourceGraphic" in2="effect1_dropShadow_10374_405" result="shape"/>
</filter>
<linearGradient id="paint0_linear_10374_405" x1="6.80648" y1="8.33208" x2="12.5868" y2="26.4796" gradientUnits="userSpaceOnUse">
<stop stop-color="#63C6FF"/>
<stop offset="1" stop-color="#B549FA"/>
</linearGradient>
<linearGradient id="paint1_linear_10374_405" x1="6.80648" y1="8.36919" x2="13.1602" y2="27.0013" gradientUnits="userSpaceOnUse">
<stop stop-color="#5782F9"/>
<stop offset="1" stop-color="#BD5FF9"/>
</linearGradient>
<linearGradient id="paint2_linear_10374_405" x1="27.0058" y1="2.90169" x2="15.5795" y2="35.8361" gradientUnits="userSpaceOnUse">
<stop stop-color="#4BD1FF"/>
<stop offset="0.373358" stop-color="#27D6F5"/>
<stop offset="1" stop-color="#41FFA6"/>
</linearGradient>
</defs>
</svg>
