<svg width="24" height="24" viewBox="0 0 24 24" fill="none" xmlns="http://www.w3.org/2000/svg">
<g clip-path="url(#clip0_120_41)">
<path d="M12 4.75C13.77 4.75 15.355 5.36 16.605 6.55L20.03 3.125C17.95 1.19 15.235 0 12 0C7.31003 0 3.25503 2.69 1.28003 6.61L5.27003 9.705C6.21503 6.86 8.87003 4.75 12 4.75Z" fill="#EA4335"/>
<path d="M23.49 12.275C23.49 11.49 23.415 10.73 23.3 10H12V14.51H18.47C18.18 15.99 17.34 17.25 16.08 18.1L19.945 21.1C22.2 19.01 23.49 15.92 23.49 12.275Z" fill="#4285F4"/>
<path d="M5.265 14.2951C5.025 13.5701 4.885 12.8001 4.885 12.0001C4.885 11.2001 5.02 10.4301 5.265 9.70511L1.275 6.61011C0.46 8.23011 0 10.0601 0 12.0001C0 13.9401 0.46 15.7701 1.28 17.3901L5.265 14.2951Z" fill="#FBBC05"/>
<path d="M12 24C15.24 24 17.965 22.935 19.945 21.095L16.08 18.095C15.005 18.82 13.62 19.245 12 19.245C8.87002 19.245 6.21502 17.135 5.26502 14.29L1.27502 17.385C3.25502 21.31 7.31002 24 12 24Z" fill="#34A853"/>
</g>
<defs>
<clipPath id="clip0_120_41">
<rect width="24" height="24" fill="white"/>
</clipPath>
</defs>
</svg>
