<svg width="40" height="40" viewBox="0 0 40 40" fill="none" xmlns="http://www.w3.org/2000/svg">
<g clip-path="url(#clip0_10134_8592)">
<path d="M35.4169 15.435H30.8389C29.1362 15.435 27.7559 16.8153 27.7559 18.518V23.096C27.7559 24.7987 29.1362 26.179 30.8389 26.179H35.4169C37.1196 26.179 38.4999 24.7987 38.4999 23.096V18.518C38.4999 16.8153 37.1196 15.435 35.4169 15.435Z" fill="#2F81F9"/>
<path d="M23.3156 5.812C23.3156 3.98063 21.831 2.496 19.9996 2.496C18.1682 2.496 16.6836 3.98063 16.6836 5.812V9.924C16.6836 11.7554 18.1682 13.24 19.9996 13.24C21.831 13.24 23.3156 11.7554 23.3156 9.924V5.812Z" fill="#1E6EF4"/>
<path d="M9.161 15.435H4.583C2.88031 15.435 1.5 16.8153 1.5 18.518V23.096C1.5 24.7987 2.88031 26.179 4.583 26.179H9.161C10.8637 26.179 12.244 24.7987 12.244 23.096V18.518C12.244 16.8153 10.8637 15.435 9.161 15.435Z" fill="#2F81F9"/>
<path d="M29.4728 6.10901H10.3558C7.51761 6.10901 5.2168 8.40982 5.2168 11.248V30.365C5.2168 33.2032 7.51761 35.504 10.3558 35.504H29.4728C32.311 35.504 34.6118 33.2032 34.6118 30.365V11.248C34.6118 8.40982 32.311 6.10901 29.4728 6.10901Z" fill="#93C9FF"/>
<path d="M25.0085 20.467C26.2904 20.467 27.3295 19.4279 27.3295 18.146C27.3295 16.8642 26.2904 15.825 25.0085 15.825C23.7266 15.825 22.6875 16.8642 22.6875 18.146C22.6875 19.4279 23.7266 20.467 25.0085 20.467Z" fill="black"/>
<path d="M14.9929 20.467C16.2747 20.467 17.3139 19.4279 17.3139 18.146C17.3139 16.8642 16.2747 15.825 14.9929 15.825C13.711 15.825 12.6719 16.8642 12.6719 18.146C12.6719 19.4279 13.711 20.467 14.9929 20.467Z" fill="black"/>
<path d="M23.2654 27.91H16.7334C15.8824 27.91 15.1914 27.219 15.1914 26.368C15.1914 25.517 15.8824 24.826 16.7334 24.826H23.2654C24.1164 24.826 24.8074 25.517 24.8074 26.368C24.8074 27.219 24.1164 27.91 23.2654 27.91Z" fill="white"/>
</g>
<defs>
<clipPath id="clip0_10134_8592">
<rect width="40" height="40" fill="white"/>
</clipPath>
</defs>
</svg>
