<svg width="40" height="40" viewBox="0 0 40 40" fill="none" xmlns="http://www.w3.org/2000/svg">
<g clip-path="url(#clip0_10134_8568)">
<path d="M17.7193 35H22.2803C23.2009 35 23.9473 34.2537 23.9473 33.333V22.456C23.9473 21.5353 23.2009 20.789 22.2803 20.789H17.7193C16.7986 20.789 16.0523 21.5353 16.0523 22.456V33.333C16.0523 34.2537 16.7986 35 17.7193 35Z" fill="#007FF3"/>
<path d="M6.66653 35H11.2275C12.1482 35 12.8945 34.2537 12.8945 33.333L12.8945 14.562C12.8945 13.6413 12.1482 12.895 11.2275 12.895H6.66653C5.74587 12.895 4.99953 13.6413 4.99953 14.562L4.99953 33.333C4.99953 34.2537 5.74587 35 6.66653 35Z" fill="#00BC79"/>
<path d="M28.772 35H33.333C34.2537 35 35 34.2537 35 33.333V6.667C35 5.74634 34.2537 5 33.333 5H28.772C27.8513 5 27.105 5.74634 27.105 6.667L27.105 33.333C27.105 34.2537 27.8513 35 28.772 35Z" fill="#FC2D4C"/>
</g>
<defs>
<clipPath id="clip0_10134_8568">
<rect width="40" height="40" fill="white"/>
</clipPath>
</defs>
</svg>
