<svg width="40" height="40" viewBox="0 0 40 40" fill="none" xmlns="http://www.w3.org/2000/svg">
<g clip-path="url(#clip0_10134_8577)">
<path d="M33.098 13.978C32.574 12.751 31.481 11.892 30.206 11.636V17.757C30.206 18.41 29.97 19.001 29.591 19.474C29.085 20.104 28.318 20.516 27.447 20.516H12.55C11.679 20.516 10.912 20.104 10.406 19.474C10.027 19.002 9.79103 18.41 9.79103 17.757V11.636C8.51603 11.892 7.42203 12.751 6.89903 13.978L3.33203 22.336H36.665L33.098 13.978Z" fill="#2085F7"/>
<path d="M3.33203 22.336V32.082C3.33203 33.96 4.85503 35.483 6.73303 35.483H33.264C35.142 35.483 36.665 33.96 36.665 32.082V22.336H3.33203Z" fill="#64A7FF"/>
<path d="M10.408 19.474L16.899 14.3L9.79297 8.37799V17.757C9.79297 18.41 10.029 19.001 10.408 19.474Z" fill="#D0D5DA"/>
<path d="M23.1016 14.3L29.5926 19.474C29.9716 19.002 30.2076 18.41 30.2076 17.757V8.37799L23.1016 14.3Z" fill="#D0D5DA"/>
<path d="M16.899 14.3L18.122 15.319C19.253 16.196 20.748 16.196 21.878 15.319L23.101 14.3L30.207 8.37799L21.878 14.117C20.747 14.896 19.252 14.896 18.122 14.117L9.79297 8.37799L16.899 14.3Z" fill="#AFB7C0"/>
<path d="M21.8763 15.319C20.7453 16.196 19.2502 16.196 18.1202 15.319L16.8973 14.3L10.4062 19.474C10.9122 20.104 11.6793 20.516 12.5503 20.516H27.4473C28.3183 20.516 29.0853 20.104 29.5913 19.474L23.1002 14.3L21.8763 15.319Z" fill="#E5E9EE"/>
<path d="M18.121 14.117C19.252 14.896 20.747 14.896 21.877 14.117L30.206 8.37799V7.27499C30.206 5.75099 28.971 4.51599 27.447 4.51599H12.55C11.027 4.51599 9.79102 5.75099 9.79102 7.27499V8.37799L18.121 14.117Z" fill="#E5E9EE"/>
</g>
<defs>
<clipPath id="clip0_10134_8577">
<rect width="40" height="40" fill="white"/>
</clipPath>
</defs>
</svg>
