<svg width="40" height="40" viewBox="0 0 40 40" fill="none" xmlns="http://www.w3.org/2000/svg">
<g clip-path="url(#clip0_10134_8556)">
<path d="M27.6377 7.577C27.6377 8.129 27.1897 8.577 26.6377 8.577H11.7357C11.1837 8.577 10.7357 8.129 10.7357 7.577V6.556H8.05469V33.55H30.3177V6.557H27.6367V7.578L27.6377 7.577Z" fill="white"/>
<path d="M11.7363 8.57698H26.6383C27.1903 8.57698 27.6383 8.12898 27.6383 7.57698V6.96298H10.7363V7.57698C10.7363 8.12898 11.1843 8.57698 11.7363 8.57698Z" fill="#A3ADB7"/>
<path d="M26.6402 4.42H22.0302C22.0402 4.32 22.0602 4.22 22.0602 4.11C22.0602 3.74 21.9902 3.38 21.8502 3.05C21.4402 2.07 20.4602 1.37 19.3202 1.37C18.1802 1.37 17.2102 2.07 16.8002 3.05C16.6602 3.38 16.5802 3.74 16.5802 4.11C16.5802 4.22 16.6002 4.32 16.6102 4.42H11.7402C11.1802 4.42 10.7402 4.87 10.7402 5.42V6.96H27.6402V5.42C27.6402 4.87 27.1902 4.42 26.6402 4.42ZM19.3202 3.15C19.8602 3.15 20.2902 3.58 20.2902 4.11C20.2902 4.64 19.8602 5.08 19.3202 5.08C18.7902 5.08 18.3602 4.64 18.3602 4.11C18.3602 3.58 18.7902 3.15 19.3202 3.15Z" fill="#D0D5DA"/>
<path d="M31.104 3.05399H21.851C21.987 3.37899 22.063 3.73599 22.063 4.11099C22.063 4.21699 22.043 4.31799 22.032 4.42099H26.638C27.19 4.42099 27.638 4.86899 27.638 5.42099V6.55699H30.319V33.551H8.05502V6.55699H10.736V5.42099C10.736 4.86899 11.184 4.42099 11.736 4.42099H16.615C16.603 4.31799 16.584 4.21699 16.584 4.11099C16.584 3.73599 16.66 3.37899 16.796 3.05399H7.26902C6.10802 3.05399 5.16602 3.99599 5.16602 5.15699V34.951C5.16602 36.113 6.10802 37.054 7.26902 37.054H31.104C32.265 37.054 33.207 36.112 33.207 34.951V5.15699C33.207 3.99499 32.265 3.05399 31.104 3.05399Z" fill="#FFC33A"/>
<path d="M19.3224 3.146C18.7894 3.146 18.3574 3.578 18.3574 4.111C18.3574 4.644 18.7894 5.076 19.3224 5.076C19.8554 5.076 20.2874 4.644 20.2874 4.111C20.2874 3.578 19.8554 3.146 19.3224 3.146Z" fill="#FFC33A"/>
</g>
<defs>
<clipPath id="clip0_10134_8556">
<rect width="40" height="40" fill="white"/>
</clipPath>
</defs>
</svg>
