<svg width="48" height="48" viewBox="0 0 48 48" fill="none" xmlns="http://www.w3.org/2000/svg">
<g clip-path="url(#clip0_9686_3518)">
<path d="M37.1969 37.2H10.7969V24L36.8461 25.696L37.1969 37.2Z" fill="#E5E8EB"/>
<path d="M27.5969 28.7992C33.5616 28.7992 38.3969 23.9639 38.3969 17.9992C38.3969 12.0345 33.5616 7.19922 27.5969 7.19922C21.6322 7.19922 16.7969 12.0345 16.7969 17.9992C16.7969 23.9639 21.6322 28.7992 27.5969 28.7992Z" fill="#E5E8EB"/>
<path d="M37.1977 37.1992C42.4996 37.1992 46.7977 33.1698 46.7977 28.1992C46.7977 23.2287 42.4996 19.1992 37.1977 19.1992C31.8957 19.1992 27.5977 23.2287 27.5977 28.1992C27.5977 33.1698 31.8957 37.1992 37.1977 37.1992Z" fill="#E5E8EB"/>
<path d="M10.7984 37.1984C15.4376 37.1984 19.1984 33.4376 19.1984 28.7984C19.1984 24.1592 15.4376 20.3984 10.7984 20.3984C6.15925 20.3984 2.39844 24.1592 2.39844 28.7984C2.39844 33.4376 6.15925 37.1984 10.7984 37.1984Z" fill="#E5E8EB"/>
<path d="M16.7977 27.5992C20.7741 27.5992 23.9977 24.3757 23.9977 20.3992C23.9977 16.4228 20.7741 13.1992 16.7977 13.1992C12.8212 13.1992 9.59766 16.4228 9.59766 20.3992C9.59766 24.3757 12.8212 27.5992 16.7977 27.5992Z" fill="#E5E8EB"/>
</g>
<defs>
<clipPath id="clip0_9686_3518">
<rect width="48" height="48" fill="white"/>
</clipPath>
</defs>
</svg>
