<svg width="48" height="48" viewBox="0 0 48 48" fill="none" xmlns="http://www.w3.org/2000/svg">
<g clip-path="url(#clip0_9686_3479)">
<path d="M19.9337 39.9483C20.1569 39.0951 21.9437 36.9663 22.8401 35.9367C23.0501 35.6943 23.4449 35.7975 23.5097 36.1119C23.7869 37.4475 24.3041 40.1787 24.0809 41.0331C23.7809 42.1779 22.6109 42.8643 21.4649 42.5643C20.3201 42.2643 19.6337 41.0943 19.9337 39.9483Z" fill="#88C5FF"/>
<path d="M29.5743 39.9483C29.7975 39.0951 31.5843 36.9663 32.4807 35.9367C32.6907 35.6943 33.0855 35.7975 33.1503 36.1119C33.4275 37.4475 33.9447 40.1787 33.7215 41.0331C33.4215 42.1779 32.2515 42.8643 31.1055 42.5643C29.9607 42.2643 29.2743 41.0943 29.5743 39.9483Z" fill="#88C5FF"/>
<path d="M10.2892 39.9483C10.5124 39.0951 12.2992 36.9663 13.1956 35.9367C13.4056 35.6943 13.8004 35.7975 13.8652 36.1119C14.1424 37.4475 14.6596 40.1787 14.4364 41.0331C14.1364 42.1779 12.9664 42.8643 11.8204 42.5643C10.6756 42.2643 9.98916 41.0943 10.2892 39.9483Z" fill="#88C5FF"/>
<path d="M36.5154 32.7383H11.2266V19.6367L36.1794 21.3203L36.5154 32.7383Z" fill="#E5E8EB"/>
<path d="M27.2804 24.8538C33.0509 24.8538 37.7288 20.1759 37.7288 14.4054C37.7288 8.63494 33.0509 3.95703 27.2804 3.95703C21.5099 3.95703 16.832 8.63494 16.832 14.4054C16.832 20.1759 21.5099 24.8538 27.2804 24.8538Z" fill="#E5E8EB"/>
<path d="M36.1381 32.7392C41.0318 32.7392 44.9989 28.7721 44.9989 23.8784C44.9989 18.9847 41.0318 15.0176 36.1381 15.0176C31.2445 15.0176 27.2773 18.9847 27.2773 23.8784C27.2773 28.7721 31.2445 32.7392 36.1381 32.7392Z" fill="#E5E8EB"/>
<path d="M11.2272 32.7396C15.771 32.7396 19.4544 29.0561 19.4544 24.5124C19.4544 19.9686 15.771 16.2852 11.2272 16.2852C6.68344 16.2852 3 19.9686 3 24.5124C3 29.0561 6.68344 32.7396 11.2272 32.7396Z" fill="#E5E8EB"/>
<path d="M16.8321 22.6543C20.5514 22.6543 23.5665 19.6393 23.5665 15.9199C23.5665 12.2006 20.5514 9.18555 16.8321 9.18555C13.1128 9.18555 10.0977 12.2006 10.0977 15.9199C10.0977 19.6393 13.1128 22.6543 16.8321 22.6543Z" fill="#E5E8EB"/>
</g>
<defs>
<clipPath id="clip0_9686_3479">
<rect width="48" height="48" fill="white"/>
</clipPath>
</defs>
</svg>
