<svg width="60" height="60" viewBox="0 0 60 60" fill="none" xmlns="http://www.w3.org/2000/svg">
<g clip-path="url(#clip0_9686_3665)">
<g clip-path="url(#clip1_9686_3665)">
<path d="M31.9297 10.2837V9.92969C31.9297 8.89469 31.0897 8.05469 30.0547 8.05469C29.0197 8.05469 28.1797 8.89469 28.1797 9.92969V10.2837C28.8007 10.2402 29.4217 10.1952 30.0547 10.1952C30.6877 10.1952 31.3087 10.2402 31.9297 10.2837Z" fill="#4B596A"/>
<path d="M31.9341 49.1403C31.9341 49.1853 31.9041 49.2153 31.9041 49.2603C31.9041 49.3203 31.9341 49.3503 31.9341 49.3953C31.9341 52.9953 29.0091 55.9053 25.4241 55.9053C21.8391 55.9053 18.9141 52.9953 18.9141 49.3953C18.9141 48.3603 19.7541 47.5203 20.7891 47.5203C21.8241 47.5203 22.6641 48.3603 22.6641 49.3953C22.6641 50.9253 23.8941 52.1553 25.4241 52.1553C26.9391 52.1553 28.1841 50.9253 28.1841 49.3953C28.1841 49.3503 28.1991 49.3203 28.1991 49.2603C28.1991 49.2153 28.1841 49.1853 28.1841 49.1403V36.5703H31.9341V49.1403Z" fill="#4B596A"/>
<path d="M30.0508 10.1934C20.5243 10.1934 12.8008 21.9984 12.8008 36.5619H22.5508C22.5508 21.9984 25.9093 10.1934 30.0508 10.1934Z" fill="#64A7FF"/>
<path d="M30.0508 10.1934C34.1923 10.1934 37.5508 21.9984 37.5508 36.5619H47.3008C47.3008 21.9984 39.5773 10.1934 30.0508 10.1934Z" fill="#64A7FF"/>
<path d="M30.0508 10.1934C29.4178 10.1934 28.7968 10.2384 28.1758 10.2819C15.3673 11.1849 5.07727 21.2124 3.81277 33.9189C3.67177 35.3319 4.79227 36.5619 6.21277 36.5619H12.8008C12.8008 21.9984 20.5243 10.1934 30.0508 10.1934Z" fill="#2F81F9"/>
<path d="M31.9258 10.2819C31.3048 10.2384 30.6823 10.1934 30.0508 10.1934C39.5773 10.1934 47.3008 21.9984 47.3008 36.5619H53.8888C55.3078 36.5619 56.4283 35.3304 56.2888 33.9189C55.0243 21.2139 44.7343 11.1849 31.9258 10.2819Z" fill="#2F81F9"/>
<path d="M30.0508 10.1934C25.9093 10.1934 22.5508 21.9984 22.5508 36.5619H37.5508C37.5508 21.9984 34.1923 10.1934 30.0508 10.1934Z" fill="#2F81F9"/>
<path d="M41.9015 10.3368C43.403 10.7298 44.9405 9.82976 45.332 8.32826C45.6245 7.20926 44.948 3.62576 44.5835 1.87376C44.498 1.46276 43.9805 1.32626 43.7045 1.64426C42.53 2.99426 40.1855 5.78726 39.893 6.90626C39.5 8.40776 40.4 9.94376 41.9015 10.3368Z" fill="#88C5FF"/>
<path d="M17.9015 10.3368C19.403 10.7298 20.9405 9.82976 21.332 8.32826C21.6245 7.20926 20.948 3.62576 20.5835 1.87376C20.498 1.46276 19.9805 1.32626 19.7045 1.64426C18.53 2.99426 16.1855 5.78726 15.893 6.90626C15.5 8.40776 16.4 9.94376 17.9015 10.3368Z" fill="#88C5FF"/>
<path d="M52.4015 17.7493C53.903 18.1423 55.4405 17.2423 55.832 15.7408C56.1245 14.6218 55.448 11.0383 55.0835 9.28627C54.998 8.87377 54.4805 8.73877 54.2045 9.05677C53.03 10.4068 50.6855 13.1998 50.393 14.3188C50 15.8203 50.9 17.3563 52.4015 17.7493Z" fill="#88C5FF"/>
<path d="M5.79599 16.2493C7.29749 16.6423 8.83499 15.7423 9.22649 14.2408C9.51899 13.1218 8.84249 9.53827 8.47799 7.78627C8.39249 7.37377 7.87499 7.23877 7.59899 7.55677C6.42449 8.90677 4.07999 11.6998 3.78749 12.8188C3.39449 14.3203 4.29449 15.8563 5.79599 16.2493Z" fill="#88C5FF"/>
</g>
</g>
<defs>
<clipPath id="clip0_9686_3665">
<rect width="60" height="60" fill="white"/>
</clipPath>
<clipPath id="clip1_9686_3665">
<rect width="60" height="60" fill="white"/>
</clipPath>
</defs>
</svg>
