<svg width="48" height="48" viewBox="0 0 48 48" fill="none" xmlns="http://www.w3.org/2000/svg">
<g clip-path="url(#clip0_9686_3474)">
<path d="M42.0134 28.1362L45.2066 24.943C45.7274 24.4222 45.7274 23.5774 45.2066 23.0566L42.0134 19.8634C41.6762 19.5262 41.5442 19.0354 41.6678 18.5746L42.8366 14.2126C43.0274 13.501 42.605 12.769 41.8934 12.5782L37.5314 11.4094C37.0706 11.2858 36.7118 10.9258 36.5882 10.4662L35.4194 6.10419C35.2286 5.39259 34.4966 4.97019 33.785 5.16099L29.423 6.32979C28.9622 6.45339 28.4714 6.32139 28.1342 5.98419L24.941 2.79099C24.4202 2.27019 23.5754 2.27019 23.0546 2.79099L19.8614 5.98419C19.5242 6.32139 19.0334 6.45339 18.5726 6.32979L14.2106 5.16099C13.499 4.97019 12.767 5.39259 12.5762 6.10419L11.4074 10.4662C11.2838 10.927 10.9238 11.2858 10.4642 11.4094L6.10224 12.5782C5.39064 12.769 4.96824 13.501 5.15904 14.2126L6.32784 18.5746C6.45144 19.0354 6.31944 19.5262 5.98224 19.8634L2.78904 23.0566C2.26824 23.5774 2.26824 24.4222 2.78904 24.943L5.98224 28.1362C6.31944 28.4734 6.45144 28.9642 6.32784 29.425L5.15904 33.787C4.96824 34.4986 5.39064 35.2306 6.10224 35.4214L10.4642 36.5902C10.925 36.7138 11.2838 37.0738 11.4074 37.5334L12.5762 41.8954C12.767 42.607 13.499 43.0294 14.2106 42.8386L18.5726 41.6698C19.0334 41.5462 19.5242 41.6782 19.8614 42.0154L23.0546 45.2086C23.5754 45.7294 24.4202 45.7294 24.941 45.2086L28.1342 42.0154C28.4714 41.6782 28.9622 41.5462 29.423 41.6698L33.785 42.8386C34.4966 43.0294 35.2286 42.607 35.4194 41.8954L36.5882 37.5334C36.7118 37.0726 37.0718 36.7138 37.5314 36.5902L41.8934 35.4214C42.605 35.2306 43.0274 34.4986 42.8366 33.787L41.6678 29.425C41.5442 28.9642 41.6762 28.4734 42.0134 28.1362Z" fill="#FFCD00"/>
<path d="M23.9984 36.6004C30.9572 36.6004 36.5984 30.9592 36.5984 24.0004C36.5984 17.0416 30.9572 11.4004 23.9984 11.4004C17.0396 11.4004 11.3984 17.0416 11.3984 24.0004C11.3984 30.9592 17.0396 36.6004 23.9984 36.6004Z" fill="#FFAA00"/>
</g>
<defs>
<clipPath id="clip0_9686_3474">
<rect width="48" height="48" fill="white"/>
</clipPath>
</defs>
</svg>
