<svg width="48" height="48" viewBox="0 0 48 48" fill="none" xmlns="http://www.w3.org/2000/svg">
<g clip-path="url(#clip0_9686_3487)">
<g clip-path="url(#clip1_9686_3487)">
<path d="M24.524 15.2824L26.114 13.6924C26.3732 13.4332 26.3732 13.012 26.114 12.7528L24.524 11.1628C24.356 10.9948 24.2912 10.7499 24.3524 10.5208L24.9344 8.34875C25.0292 7.99475 24.8192 7.62995 24.4652 7.53515L22.2932 6.95315C22.064 6.89195 21.8852 6.71315 21.824 6.48395L21.242 4.31195C21.1472 3.95795 20.7824 3.74675 20.4284 3.84275L18.2564 4.42475C18.0272 4.48595 17.7824 4.42115 17.6144 4.25315L16.0244 2.66315C15.7652 2.40395 15.344 2.40395 15.0848 2.66315L13.4948 4.25315C13.3268 4.42115 13.082 4.48595 12.8528 4.42475L10.6808 3.84275C10.3268 3.74795 9.96198 3.95795 9.86718 4.31195L9.28518 6.48395C9.22398 6.71315 9.04518 6.89195 8.81598 6.95315L6.64398 7.53515C6.28998 7.62995 6.07878 7.99475 6.17478 8.34875L6.75678 10.5208C6.81798 10.7499 6.75318 10.9948 6.58518 11.1628L4.99518 12.7528C4.73598 13.012 4.73598 13.4332 4.99518 13.6924L6.58518 15.2824C6.75318 15.4504 6.81798 15.6952 6.75678 15.9244L6.17478 18.0964C6.07998 18.4504 6.28998 18.8152 6.64398 18.91L8.81598 19.492C9.04518 19.5532 9.22398 19.732 9.28518 19.9612L9.86718 22.1332C9.96198 22.4872 10.3268 22.6984 10.6808 22.6024L12.8528 22.0203C13.082 21.9592 13.3268 22.0239 13.4948 22.1919L15.0848 23.7819C15.344 24.0412 15.7652 24.0412 16.0244 23.7819L17.6144 22.1919C17.7824 22.0239 18.0272 21.9592 18.2564 22.0203L20.4284 22.6024C20.7824 22.6972 21.1472 22.4872 21.242 22.1332L21.824 19.9612C21.8852 19.732 22.064 19.5532 22.2932 19.492L24.4652 18.91C24.8192 18.8152 25.0304 18.4504 24.9344 18.0964L24.3524 15.9244C24.2912 15.6952 24.356 15.4504 24.524 15.2824Z" fill="#FFCD00"/>
<path d="M15.554 19.5415C19.0161 19.5415 21.8228 16.7349 21.8228 13.2727C21.8228 9.81054 19.0161 7.00391 15.554 7.00391C12.0918 7.00391 9.28516 9.81054 9.28516 13.2727C9.28516 16.7349 12.0918 19.5415 15.554 19.5415Z" fill="#FFAA00"/>
<path d="M35.5138 33.9496H12.6094V22.084L35.209 23.608L35.5138 33.9496Z" fill="#E5E8EB"/>
<path d="M27.1507 26.8092C32.3771 26.8092 36.6139 22.5724 36.6139 17.346C36.6139 12.1196 32.3771 7.88281 27.1507 7.88281C21.9243 7.88281 17.6875 12.1196 17.6875 17.346C17.6875 22.5724 21.9243 26.8092 27.1507 26.8092Z" fill="#E5E8EB"/>
<path d="M35.1728 33.9511C39.6046 33.9511 43.1972 30.3585 43.1972 25.9267C43.1972 21.495 39.6046 17.9023 35.1728 17.9023C30.7411 17.9023 27.1484 21.495 27.1484 25.9267C27.1484 30.3585 30.7411 33.9511 35.1728 33.9511Z" fill="#E5E8EB"/>
<path d="M12.611 33.9504C16.7259 33.9504 20.0618 30.6146 20.0618 26.4996C20.0618 22.3847 16.7259 19.0488 12.611 19.0488C8.49599 19.0488 5.16016 22.3847 5.16016 26.4996C5.16016 30.6146 8.49599 33.9504 12.611 33.9504Z" fill="#E5E8EB"/>
<path d="M17.6882 24.8159C21.0563 24.8159 23.7866 22.0856 23.7866 18.7175C23.7866 15.3495 21.0563 12.6191 17.6882 12.6191C14.3202 12.6191 11.5898 15.3495 11.5898 18.7175C11.5898 22.0856 14.3202 24.8159 17.6882 24.8159Z" fill="#E5E8EB"/>
<path d="M21.0643 42.1429C21.3175 41.1733 23.3479 38.7541 24.3667 37.5853C24.6055 37.3105 25.0543 37.4281 25.1275 37.7845C25.4431 39.3025 26.0299 42.4057 25.7767 43.3753C25.4371 44.6761 24.1063 45.4561 22.8043 45.1153C21.5035 44.7757 20.7235 43.4449 21.0643 42.1429Z" fill="#88C5FF"/>
<path d="M32.0175 42.1429C32.2707 41.1733 34.3011 38.7541 35.3199 37.5853C35.5587 37.3105 36.0075 37.4281 36.0807 37.7845C36.3963 39.3025 36.9831 42.4057 36.7299 43.3753C36.3903 44.6761 35.0595 45.4561 33.7575 45.1153C32.4567 44.7757 31.6767 43.4449 32.0175 42.1429Z" fill="#88C5FF"/>
<path d="M10.1073 42.1429C10.3605 41.1733 12.3909 38.7541 13.4097 37.5853C13.6485 37.3105 14.0973 37.4281 14.1705 37.7845C14.4861 39.3025 15.0729 42.4057 14.8197 43.3753C14.4801 44.6761 13.1493 45.4561 11.8473 45.1153C10.5465 44.7757 9.76651 43.4449 10.1073 42.1429Z" fill="#88C5FF"/>
</g>
</g>
<defs>
<clipPath id="clip0_9686_3487">
<rect width="48" height="48" fill="white"/>
</clipPath>
<clipPath id="clip1_9686_3487">
<rect width="48" height="48" fill="white"/>
</clipPath>
</defs>
</svg>
